# xmcd CD database file
#
# Track frame offsets:
#	150
#	23167
#	48329
#	73266
#	107427
#	126776
#	146838
#	172485
#	194947
#
# Disc length: 3300 seconds
#
# Revision: 0
# Processed by: cddbd v1.5.1PL2 Copyright (c) Steve Scherf et al.
# Submitted via: CDex 1.51
#
DISCID=900ce209
DTITLE=Son Boricua - Live In Calí Colombia 
DYEAR=2004
DGENRE=Salsa
TTITLE0=Intro 
TTITLE1=El Negro Bembon 
TTITLE2=Maquina Landera 
TTITLE3=Salchicha Con Huevo 
TTITLE4=Las Caras Lindas 
TTITLE5=Cuando Cuando 
TTITLE6=Volare 
TTITLE7=Bomba Carambomba 
TTITLE8=El Campanero 
EXTD=YEAR: 2004
EXTT0=
EXTT1=
EXTT2=
EXTT3=
EXTT4=
EXTT5=
EXTT6=
EXTT7=
EXTT8=
PLAYORDER=
